<svg xmlns="http://www.w3.org/2000/svg" viewBox="0 0 154.22 26.27"><defs><style>.cls-1{fill:#fff;}.cls-2{fill:#bf0d3e;fill-rule:evenodd;}</style></defs><title>logo-white</title><g id="Layer_2" data-name="Layer 2"><g id="mobile"><g id="nav"><g id="logo-vcp"><path class="cls-1" d="M-277-83.75l.06.62-.52.13a6.32,6.32,0,0,0-.62.18c-.5.19-.75.43-.75.75a12.7,12.7,0,0,0,1,2.61l1.44,3.17c.66,1.46,1.13,2.54,1.41,3.26.13-.36.31-.8.53-1.31l.69-1.62c.25-.58.49-1.16.74-1.76s.47-1.16.66-1.69a9.53,9.53,0,0,0,.68-2.32,1,1,0,0,0-.2-.71,1.45,1.45,0,0,0-.52-.33A3.94,3.94,0,0,0-273-83a4.87,4.87,0,0,1-.63-.15,1.36,1.36,0,0,1,0-.3,2.09,2.09,0,0,1,0-.34h5.27a5.44,5.44,0,0,1,0,.57,5.6,5.6,0,0,1-.64.36l-.7.32a1.57,1.57,0,0,0-.64.6,6.33,6.33,0,0,0-.51,1c-.15.35-.29.71-.41,1.06s-.27.75-.45,1.18-.41,1-.7,1.69-.58,1.42-.88,2.16c-.82,2.06-1.41,3.55-1.75,4.48a2.56,2.56,0,0,1-.6.09h-.19l-.13,0c-.83-1.9-1.66-3.77-2.5-5.63l-2-4.42a16.74,16.74,0,0,0-.92-1.88,1.67,1.67,0,0,0-.42-.42,4.16,4.16,0,0,0-1.23-.51l0-.59Z" transform="translate(283 84)"/><path class="cls-1" d="M-233.56-71.3a4.31,4.31,0,0,0,4.14-2.27l.5.07-.09,1.93a11.22,11.22,0,0,1-4,1.26,8.72,8.72,0,0,1-1.31.1,7.21,7.21,0,0,1-5-1.8,6.45,6.45,0,0,1-2-5,6.55,6.55,0,0,1,2.08-5,7.84,7.84,0,0,1,5.61-2,11.77,11.77,0,0,1,4.25.84l.42,3.08h-.48a2.94,2.94,0,0,1-.47-.67,6.43,6.43,0,0,0-.74-1.11A4.5,4.5,0,0,0-234-83.22a4.62,4.62,0,0,0-3.49,1.5A6.06,6.06,0,0,0-239-77.4,6.43,6.43,0,0,0-237.53-73,5.08,5.08,0,0,0-233.56-71.3Z" transform="translate(283 84)"/><path class="cls-1" d="M-162-83c-.37,0-.77,0-1.17,0v9.7a3.53,3.53,0,0,0,.17,1.44.83.83,0,0,0,.36.38,2.1,2.1,0,0,0,.44.13,8.25,8.25,0,0,1,1.35.33l0,.53h-6.65l0-.53a9.72,9.72,0,0,0,1.45-.49,1.34,1.34,0,0,0,.72-1.25V-81a2.86,2.86,0,0,0-.18-1.28,1,1,0,0,0-.34-.38,2,2,0,0,0-.42-.18l-.55-.16a4,4,0,0,1-.67-.25l0-.52h5.07a15.28,15.28,0,0,1,4.51.51,3.13,3.13,0,0,1,2.44,3.2,3.57,3.57,0,0,1-1.41,3,5.3,5.3,0,0,1-3.3,1,3.85,3.85,0,0,1-1.34-.19,3,3,0,0,1-.65-.28.26.26,0,0,1-.14-.2c0-.12.15-.19.45-.19h.16a5.5,5.5,0,0,0,2.75-.52,2.66,2.66,0,0,0,1.1-2.46,2.66,2.66,0,0,0-1.39-2.47A5.41,5.41,0,0,0-162-83Z" transform="translate(283 84)"/><path class="cls-1" d="M-258.84-81.77a1.63,1.63,0,0,1,.31,0V-79H-259a1.19,1.19,0,0,1-.32-.47c-.08-.18-.15-.37-.23-.55a2.15,2.15,0,0,0-.28-.49.83.83,0,0,0-.45-.32,3.2,3.2,0,0,0-.66-.15,6.06,6.06,0,0,0-.75,0h-1.23a19.53,19.53,0,0,0-2,.07c0,.3,0,.59,0,.88v3.47h2.49a2.46,2.46,0,0,0,1.26-.2,1.63,1.63,0,0,0,.43-.44,6.1,6.1,0,0,0,.36-.62l.13-.24h.5v3.72h-.5a2.71,2.71,0,0,0-.57-1,1.77,1.77,0,0,0-1.27-.53h-2.83v2.9a2.22,2.22,0,0,0,.5,1.71,2.45,2.45,0,0,0,1.47.31h.85a5.76,5.76,0,0,0,1.61-.17,2.93,2.93,0,0,0,.87-.41,1.57,1.57,0,0,0,.53-.59c.12-.24.21-.45.3-.65a1.49,1.49,0,0,1,.35-.52h.54l-.57,3-.27,0-1-.1h-8.86l0-.42a2.6,2.6,0,0,1,.82-.29,3.57,3.57,0,0,0,.57-.13.51.51,0,0,0,.25-.19,2.58,2.58,0,0,0,.2-1.27v-6.52c0-.76-.14-1.23-.42-1.43a1.78,1.78,0,0,0-.57-.24,8.24,8.24,0,0,1-.85-.28l0-.45h8.81Z" transform="translate(283 84)"/><path class="cls-1" d="M-249.15-81.07h-1.33v8.51a1.4,1.4,0,0,0,.53,1.28,3.86,3.86,0,0,0,1.43.35v.31a.78.78,0,0,1,0,.14h-5.72l0-.45.7-.22a2.3,2.3,0,0,0,.62-.25,1.21,1.21,0,0,0,.63-1.16v-8.51h-1.27a9,9,0,0,0-1.19.06,1.22,1.22,0,0,0-.67.3,3.12,3.12,0,0,0-.46.55,6.18,6.18,0,0,0-.4.64,3.9,3.9,0,0,1-.39.58h-.39l.21-2.78h11l.28,2.79H-246a3.21,3.21,0,0,1-.37-.58c-.12-.22-.25-.43-.39-.64a1.7,1.7,0,0,0-1-.84A9.3,9.3,0,0,0-249.15-81.07Z" transform="translate(283 84)"/><path class="cls-1" d="M-227.93-76a6.36,6.36,0,0,1,.24-1.77,5.68,5.68,0,0,1,.65-1.48,5.28,5.28,0,0,1,1-1.16,6.32,6.32,0,0,1,1.23-.83,6.4,6.4,0,0,1,2.87-.66,5.91,5.91,0,0,1,4.18,1.58,5.49,5.49,0,0,1,1.54,2.6,7.18,7.18,0,0,1,.22,1.88,5.31,5.31,0,0,1-.49,2.18,5.67,5.67,0,0,1-1.33,1.83,6.15,6.15,0,0,1-4.29,1.58,5.79,5.79,0,0,1-4-1.51A5.47,5.47,0,0,1-227.93-76Zm2-.62a7.71,7.71,0,0,0,.32,2.23,6,6,0,0,0,.88,1.83,3.65,3.65,0,0,0,3.05,1.65,3.22,3.22,0,0,0,2.61-1.21,5.18,5.18,0,0,0,1-3.39,6.78,6.78,0,0,0-1.17-4.07,3.61,3.61,0,0,0-3.05-1.66,3.26,3.26,0,0,0-2.57,1.16A5,5,0,0,0-225.92-76.63Z" transform="translate(283 84)"/><path class="cls-1" d="M-202.13-72.81a2.22,2.22,0,0,0,.49,1.32c.06.2.27.32.64.37a2.11,2.11,0,0,1,.78.19v.45h-5.39v-.45l.56-.17a2.21,2.21,0,0,0,.54-.24,1,1,0,0,0,.57-1l-.53-7.38-3.3,7.43a18.21,18.21,0,0,0-.64,1.77h-.68c-.22-.49-.54-1.16-.95-2l-1-2.07c-.25-.53-.51-1.06-.76-1.6-.6-1.31-1.06-2.37-1.39-3.18q-.07.86-.18,1.71c-.07.57-.12,1.14-.18,1.72-.13,1.43-.2,2.43-.2,3a2.89,2.89,0,0,0,.13,1.11,1.1,1.1,0,0,0,.36.41,2.18,2.18,0,0,0,.53.26l.63.2,0,.45h-4.18l0-.45.6-.21a2.3,2.3,0,0,0,.53-.23,1.21,1.21,0,0,0,.62-1l.66-6.45c0-.41.06-.76.06-1.06a1.08,1.08,0,0,0-.15-.64,1,1,0,0,0-.39-.33,3.52,3.52,0,0,0-.52-.19,2.45,2.45,0,0,1-.54-.22l0-.43h3.36a13.76,13.76,0,0,0,.75,2.3l3.11,6.61,3.09-7a4.82,4.82,0,0,0,.41-1.9h3.58v.44a4.49,4.49,0,0,0-1.11.48,1.15,1.15,0,0,0-.49,1Z" transform="translate(283 84)"/><path class="cls-1" d="M-194.82-81.09c-.32,0-.65,0-1,0v8.2a3.27,3.27,0,0,0,.14,1.22.7.7,0,0,0,.31.31,1.46,1.46,0,0,0,.37.12,6.89,6.89,0,0,1,1.14.27l0,.45h-5.61l0-.45a8.29,8.29,0,0,0,1.23-.41,1.13,1.13,0,0,0,.6-1v-7a2.43,2.43,0,0,0-.15-1.08.77.77,0,0,0-.29-.32,1.42,1.42,0,0,0-.35-.15l-.46-.13a3.85,3.85,0,0,1-.57-.22l0-.43h4.28a12.75,12.75,0,0,1,3.81.43,2.64,2.64,0,0,1,2.07,2.69,3,3,0,0,1-1.2,2.56,4.49,4.49,0,0,1-2.79.81,3.26,3.26,0,0,1-1.13-.16,2.64,2.64,0,0,1-.55-.24.2.2,0,0,1-.11-.17c0-.1.12-.15.38-.15h.13a4.68,4.68,0,0,0,2.32-.44,2.27,2.27,0,0,0,.93-2.09,2.25,2.25,0,0,0-1.17-2.08A4.49,4.49,0,0,0-194.82-81.09Z" transform="translate(283 84)"/><path class="cls-1" d="M-177.09-77.65a1.49,1.49,0,0,1,0-.21,2.29,2.29,0,0,1,0-.25h3.53a1.7,1.7,0,0,1,0,.22v.22a1.39,1.39,0,0,1-.41.16,1.41,1.41,0,0,0-.74.35,9.89,9.89,0,0,0-.73,1.44A22.6,22.6,0,0,1-176.78-73a6.11,6.11,0,0,0,.76.81,1.16,1.16,0,0,0,.77.32c.49,0,1-.44,1.64-1.32l.51.37a3.28,3.28,0,0,1-1.59,2.47,2.32,2.32,0,0,1-.85.14,2.15,2.15,0,0,1-1.15-.41,4.17,4.17,0,0,1-1.16-1.14,5.58,5.58,0,0,1-1.46,1.1,5.05,5.05,0,0,1-2,.43,4.81,4.81,0,0,1-1.62-.24,3.51,3.51,0,0,1-1.12-.65,2.66,2.66,0,0,1-.94-2.08,3.05,3.05,0,0,1,.72-2A10.61,10.61,0,0,1-182-77a4,4,0,0,1-1.27-2.45,2.07,2.07,0,0,1,1-1.74,3.78,3.78,0,0,1,2.16-.67,2,2,0,0,1,2,1.11,2,2,0,0,1,.19.84,1.47,1.47,0,0,1-.17.74,2.27,2.27,0,0,1-.48.58,15,15,0,0,1-1.86,1.24c.32.36.72.83,1.19,1.41q1.3,1.61,2,2.4a10.06,10.06,0,0,0,1.11-2.89,1.2,1.2,0,0,0,.11-.41.39.39,0,0,0-.1-.27,1.49,1.49,0,0,0-.26-.22A3.86,3.86,0,0,0-177.09-77.65Zm-1.2,5.37q-2.07-2.66-3.35-4.25a5.07,5.07,0,0,0-1.25,1.14,1.86,1.86,0,0,0-.4,1.14,2.8,2.8,0,0,0,.22,1.12,2.7,2.7,0,0,0,.61.91,2.92,2.92,0,0,0,2.15.86,2.41,2.41,0,0,0,1.49-.5A4.4,4.4,0,0,0-178.29-72.28Zm-3.5-8.19a1.23,1.23,0,0,0-.11.58,4.05,4.05,0,0,0,1.13,2.1,5.5,5.5,0,0,0,1.21-.9,1.44,1.44,0,0,0,.44-1,1.41,1.41,0,0,0-.27-.89,1.37,1.37,0,0,0-1-.65A1.38,1.38,0,0,0-181.79-80.47Z" transform="translate(283 84)"/><path class="cls-1" d="M-144.53-81.77a1.66,1.66,0,0,1,.32,0V-79h-.45a1.19,1.19,0,0,1-.32-.47c-.08-.18-.15-.37-.23-.55a2.12,2.12,0,0,0-.27-.49.86.86,0,0,0-.46-.32,3.05,3.05,0,0,0-.66-.15,6.06,6.06,0,0,0-.75,0h-1.22a19.53,19.53,0,0,0-2,.07,8.77,8.77,0,0,0,0,.88v3.47h2.49a2.46,2.46,0,0,0,1.26-.2,1.67,1.67,0,0,0,.44-.44c.1-.16.22-.37.36-.62l.13-.24h.49v3.72h-.49a2.85,2.85,0,0,0-.58-1,1.75,1.75,0,0,0-1.27-.53h-2.83v2.9a2.22,2.22,0,0,0,.5,1.71,2.5,2.5,0,0,0,1.47.31h.85a5.84,5.84,0,0,0,1.62-.17,2.93,2.93,0,0,0,.87-.41,1.62,1.62,0,0,0,.52-.59c.12-.24.22-.45.3-.65a1.64,1.64,0,0,1,.35-.52h.55l-.57,3-.28,0-1-.1h-8.87v-.42a2.46,2.46,0,0,1,.81-.29,3.57,3.57,0,0,0,.57-.13.53.53,0,0,0,.26-.19,2.7,2.7,0,0,0,.2-1.27v-6.52c0-.76-.15-1.23-.43-1.43a1.72,1.72,0,0,0-.56-.24,6.92,6.92,0,0,1-.85-.28v-.45h8.82Z" transform="translate(283 84)"/><path class="cls-1" d="M-130.44-70.4a1.43,1.43,0,0,1-.92,0c-.51-.62-1-1.15-1.42-1.61l-6.82-7.16v6c0,.89.15,1.45.46,1.66a2,2,0,0,0,.88.32,2.89,2.89,0,0,1,.77.2,3.55,3.55,0,0,1,0,.46h-4.87a.68.68,0,0,1,0-.14v-.32c.24-.07.48-.14.72-.19a2.36,2.36,0,0,0,.66-.24,1.37,1.37,0,0,0,.74-1.17v-7.34a2.45,2.45,0,0,0-1-.92,4.79,4.79,0,0,0-.57-.21,6.86,6.86,0,0,1-.66-.24v-.44h3l8.13,8.38v-5.42a4.27,4.27,0,0,0-.17-1.3,1.59,1.59,0,0,0-.37-.67,1.6,1.6,0,0,0-.45-.23l-.51-.13a2.3,2.3,0,0,1-.5-.18,3.39,3.39,0,0,1,0-.45h4.55v.46c-.25.12-.47.21-.66.29a4.58,4.58,0,0,0-.49.23,1.27,1.27,0,0,0-.33.26.9.9,0,0,0-.21.36,12.64,12.64,0,0,0-.15,2.52c0,1.42,0,2.58,0,3.49a19.35,19.35,0,0,0,.09,2.13C-130.49-71.44-130.45-70.92-130.44-70.4Z" transform="translate(283 84)"/><polygon class="cls-2" points="3.9 17.38 4.82 20.23 7.81 20.22 5.38 21.97 6.31 24.8 3.9 23.05 1.49 24.8 2.42 21.97 0 20.22 2.99 20.23 3.9 17.38"/><polygon class="cls-2" points="150.32 17.38 151.24 20.23 154.22 20.22 151.8 21.97 152.73 24.8 150.32 23.05 147.91 24.8 148.84 21.97 146.42 20.22 149.41 20.23 150.32 17.38"/><path class="cls-1" d="M-264.47-59.48a1.44,1.44,0,0,0,.32.88q.06.2.42.24a1.34,1.34,0,0,1,.52.13v.3h-3.57v-.3l.38-.12a1.25,1.25,0,0,0,.35-.16.68.68,0,0,0,.38-.63L-266-64l-2.19,4.93a10,10,0,0,0-.42,1.17h-.45c-.15-.33-.36-.78-.63-1.34l-.66-1.37-.51-1.06c-.4-.87-.7-1.57-.92-2.11q0,.57-.12,1.14c0,.37-.08.76-.11,1.14-.1.94-.14,1.6-.14,2a1.89,1.89,0,0,0,.09.74.78.78,0,0,0,.24.27,1.14,1.14,0,0,0,.35.17l.41.14v.3h-2.77v-.3l.39-.14a1.94,1.94,0,0,0,.36-.15.82.82,0,0,0,.41-.67l.43-4.27a6.41,6.41,0,0,0,0-.7.7.7,0,0,0-.1-.43.64.64,0,0,0-.25-.21,1.81,1.81,0,0,0-.35-.13,2.13,2.13,0,0,1-.35-.14v-.3h2.22a8.53,8.53,0,0,0,.5,1.53l2.06,4.38,2-4.64a3.19,3.19,0,0,0,.27-1.27h2.37v.3a2.92,2.92,0,0,0-.74.32.78.78,0,0,0-.32.64Z" transform="translate(283 84)"/><path class="cls-1" d="M-256.16-65.42a.76.76,0,0,1,.21,0v1.78h-.3a1,1,0,0,1-.21-.31l-.15-.37a1.4,1.4,0,0,0-.18-.32.59.59,0,0,0-.31-.22,2.5,2.5,0,0,0-.43-.09,4.07,4.07,0,0,0-.5,0h-.81a11,11,0,0,0-1.32,0c0,.19,0,.39,0,.58V-62h1.65a1.6,1.6,0,0,0,.83-.14,1,1,0,0,0,.29-.29c.07-.11.15-.24.24-.41l.09-.15h.32v2.46h-.32a1.93,1.93,0,0,0-.39-.69,1.18,1.18,0,0,0-.84-.35h-1.87v1.93a1.46,1.46,0,0,0,.33,1.13,1.66,1.66,0,0,0,1,.2h.57a3.63,3.63,0,0,0,1.07-.11,1.89,1.89,0,0,0,.57-.27,1.08,1.08,0,0,0,.35-.39c.08-.16.14-.3.2-.43a1,1,0,0,1,.23-.35h.36l-.37,2-.19,0-.66-.07h-5.87v-.28a1.74,1.74,0,0,1,.54-.19l.38-.08a.52.52,0,0,0,.17-.13,1.89,1.89,0,0,0,.13-.84v-4.32c0-.5-.1-.82-.28-.95a1.12,1.12,0,0,0-.38-.16,4.64,4.64,0,0,1-.56-.19v-.29h5.84Z" transform="translate(283 84)"/><path class="cls-1" d="M-253.87-63.7c0-.52-.08-.85-.23-1a1.5,1.5,0,0,0-.57-.27l-.48-.13v-.3h3.39q3.42,0,4.48,2a3.16,3.16,0,0,1,.38,1.56,4.42,4.42,0,0,1-.26,1.55,3.65,3.65,0,0,1-.78,1.2,4.17,4.17,0,0,1-3.1,1.16h-4.11v-.3l.43-.11a1.64,1.64,0,0,0,.41-.13.74.74,0,0,0,.44-.71Zm1.23-1.23v5.46a1.24,1.24,0,0,0,.14.7.79.79,0,0,0,.71.37,7.56,7.56,0,0,0,.82,0,2.5,2.5,0,0,0,1.12-.27,2.73,2.73,0,0,0,.9-.7,3.14,3.14,0,0,0,.7-2.07,3.62,3.62,0,0,0-.81-2.49,3.28,3.28,0,0,0-2.62-1Z" transform="translate(283 84)"/><path class="cls-1" d="M-244.28-59.42a1.57,1.57,0,0,0,.11.73.51.51,0,0,0,.22.2,1.34,1.34,0,0,0,.26.08l.33.06a2.73,2.73,0,0,1,.4.11v.31h-3.81v-.3a2,2,0,0,1,.55-.16,2.06,2.06,0,0,0,.4-.08.32.32,0,0,0,.18-.15,1.91,1.91,0,0,0,.14-.9v-4.29c0-.61-.13-1-.38-1l-.27-.06a1.76,1.76,0,0,1-.64-.18v-.3H-243v.3a2.7,2.7,0,0,1-.43.12,2.59,2.59,0,0,0-.42.14.74.74,0,0,0-.44.71Z" transform="translate(283 84)"/><path class="cls-1" d="M-238.29-58.4A2.42,2.42,0,0,0-236-59.67l.28,0-.05,1.08a6.36,6.36,0,0,1-2.23.71,6.4,6.4,0,0,1-.73.05,4,4,0,0,1-2.83-1,3.61,3.61,0,0,1-1.14-2.79,3.67,3.67,0,0,1,1.16-2.78,4.39,4.39,0,0,1,3.14-1.14A6.63,6.63,0,0,1-236-65l.24,1.73H-236a2.26,2.26,0,0,1-.27-.38,3.15,3.15,0,0,0-.41-.62,2.49,2.49,0,0,0-1.83-.76,2.58,2.58,0,0,0-1.95.84,3.37,3.37,0,0,0-.86,2.41,3.58,3.58,0,0,0,.83,2.49A2.85,2.85,0,0,0-238.29-58.4Z" transform="translate(283 84)"/><path class="cls-1" d="M-230-58.47a.86.86,0,0,0,.26-.2.36.36,0,0,0,.1-.24.93.93,0,0,0,0-.27l-.11-.35c-.05-.13-.1-.26-.15-.41s-.11-.28-.16-.41c-.13-.33-.21-.54-.23-.62h-2.59a1.61,1.61,0,0,1-.08.23l-.14.34c-.05.12-.1.26-.15.4s-.1.28-.14.41a2.36,2.36,0,0,0-.15.64.44.44,0,0,0,.1.3.94.94,0,0,0,.25.18,4.32,4.32,0,0,0,.74.21v.33h-2.7v-.3a1.05,1.05,0,0,1,.24-.15l.24-.1a.74.74,0,0,0,.41-.33c.07-.14.13-.26.17-.36l.12-.32,2.14-5.47a.28.28,0,0,0,0-.13.66.66,0,0,1,0-.14.51.51,0,0,1,.07-.26,1.41,1.41,0,0,1,.89.27l2.63,6.28a.92.92,0,0,0,.42.47l.27.11a1.94,1.94,0,0,1,.3.13v.3h-3.33v-.3A3.21,3.21,0,0,0-230-58.47Zm-.54-3-1.13-2.81-1.05,2.81Z" transform="translate(283 84)"/><path class="cls-1" d="M-219.65-57.87c-.46,0-.88-.06-1.25-.06h-5.46v-.31a4.19,4.19,0,0,1,.47-.14,1.46,1.46,0,0,0,.43-.15.79.79,0,0,0,.42-.77v-4.54a1.69,1.69,0,0,0-.1-.75.64.64,0,0,0-.21-.22,1.2,1.2,0,0,0-.25-.09l-.33-.07c-.13,0-.27-.06-.43-.1l0-.3h3.87v.3a2.59,2.59,0,0,1-.57.16,2.11,2.11,0,0,0-.43.1.34.34,0,0,0-.18.14,1.49,1.49,0,0,0-.15.8v4.17a3.9,3.9,0,0,0,.06.78.61.61,0,0,0,.28.41,1.22,1.22,0,0,0,.6.12h.86a7.09,7.09,0,0,0,.72,0,1.87,1.87,0,0,0,.48-.11,1.35,1.35,0,0,0,.75-.66c.07-.12.13-.25.19-.37a1.16,1.16,0,0,1,.24-.34h.34Z" transform="translate(283 84)"/><path class="cls-1" d="M-211.55-58.4a2.41,2.41,0,0,0,2.32-1.27l.28,0-.05,1.08a6.36,6.36,0,0,1-2.23.71,6.4,6.4,0,0,1-.73.05,4,4,0,0,1-2.83-1,3.61,3.61,0,0,1-1.14-2.79,3.71,3.71,0,0,1,1.16-2.78,4.41,4.41,0,0,1,3.14-1.14,6.63,6.63,0,0,1,2.38.47l.24,1.73h-.27a1.84,1.84,0,0,1-.26-.38,3.54,3.54,0,0,0-.42-.62,2.46,2.46,0,0,0-1.83-.76,2.58,2.58,0,0,0-2,.84,3.36,3.36,0,0,0-.85,2.41,3.58,3.58,0,0,0,.82,2.49A2.85,2.85,0,0,0-211.55-58.4Z" transform="translate(283 84)"/><path class="cls-1" d="M-208.12-61.6a4.47,4.47,0,0,1,.16-1.17,4.15,4.15,0,0,1,.43-1,3.49,3.49,0,0,1,.66-.77,4,4,0,0,1,.81-.55,4.31,4.31,0,0,1,1.9-.44,3.93,3.93,0,0,1,2.78,1.05,3.69,3.69,0,0,1,1,1.72,4.5,4.5,0,0,1,.15,1.25,3.36,3.36,0,0,1-.33,1.44,3.54,3.54,0,0,1-.87,1.21,4.11,4.11,0,0,1-2.85,1.05,3.8,3.8,0,0,1-2.67-1A3.61,3.61,0,0,1-208.12-61.6Zm1.34-.41a5.14,5.14,0,0,0,.21,1.48,4,4,0,0,0,.58,1.21,2.41,2.41,0,0,0,2,1.09,2.13,2.13,0,0,0,1.73-.8,3.46,3.46,0,0,0,.68-2.24,4.56,4.56,0,0,0-.77-2.7,2.42,2.42,0,0,0-2-1.1,2.18,2.18,0,0,0-1.7.77A3.33,3.33,0,0,0-206.78-62Z" transform="translate(283 84)"/><path class="cls-1" d="M-192-57.88a1,1,0,0,1-.61,0c-.34-.41-.65-.77-.94-1.07L-198-63.69v4c0,.6.1,1,.3,1.1a1.35,1.35,0,0,0,.59.22,1.85,1.85,0,0,1,.51.13c0,.1,0,.2,0,.31h-3.23a.38.38,0,0,1,0-.1v-.21l.48-.13a1.63,1.63,0,0,0,.44-.15.89.89,0,0,0,.48-.78v-4.86a1.55,1.55,0,0,0-.64-.61,2.46,2.46,0,0,0-.38-.14,3.42,3.42,0,0,1-.44-.16v-.3h2l5.39,5.56V-63.4a2.58,2.58,0,0,0-.12-.86.9.9,0,0,0-.24-.44,1.08,1.08,0,0,0-.3-.16l-.34-.09a1.42,1.42,0,0,1-.33-.11c0-.1,0-.2,0-.31h3v.31c-.16.08-.31.14-.44.19l-.32.16a1,1,0,0,0-.22.17.69.69,0,0,0-.14.24,8.6,8.6,0,0,0-.1,1.67c0,.94,0,1.71,0,2.31a12.78,12.78,0,0,0,.06,1.41C-192-58.57-192-58.23-192-57.88Z" transform="translate(283 84)"/><path class="cls-1" d="M-190.28-60.22h.33a1,1,0,0,1,.13.29l.12.4a1.49,1.49,0,0,0,.28.5,1.71,1.71,0,0,0,.47.42,2.33,2.33,0,0,0,1.26.34,1.8,1.8,0,0,0,1.05-.29,1,1,0,0,0,.51-.9c0-.48-.43-.95-1.29-1.44l-.74-.42-.74-.44a4.19,4.19,0,0,1-.65-.51,1.79,1.79,0,0,1-.64-1.32,1.64,1.64,0,0,1,.84-1.49,3.25,3.25,0,0,1,1.74-.43,4.77,4.77,0,0,1,2.18.53l.07,1.63h-.35a1.48,1.48,0,0,1-.12-.29l-.12-.36a1.34,1.34,0,0,0-.26-.44,1.82,1.82,0,0,0-.42-.36,2,2,0,0,0-1.07-.27,1.62,1.62,0,0,0-.83.18,1.35,1.35,0,0,0-.45.37.76.76,0,0,0-.14.46.83.83,0,0,0,.18.5,2.82,2.82,0,0,0,.46.45,7.59,7.59,0,0,0,.66.42l.76.42c.25.14.51.29.75.45a3.93,3.93,0,0,1,.66.53A2,2,0,0,1-185-59.9a1.81,1.81,0,0,1-.88,1.62,3.34,3.34,0,0,1-1.87.49,5.9,5.9,0,0,1-2-.33,2.83,2.83,0,0,1-.55-.25Z" transform="translate(283 84)"/><path class="cls-1" d="M-183-61.67l0-2a3,3,0,0,0,0-.63.48.48,0,0,0-.19-.3,1.17,1.17,0,0,0-.31-.17l-.37-.1a1.87,1.87,0,0,1-.33-.1l0-.29h3.78v.3a2.18,2.18,0,0,1-.43.12l-.34.08a.81.81,0,0,0-.25.09.42.42,0,0,0-.18.17,1.87,1.87,0,0,0-.13.83v2.44a3.62,3.62,0,0,0,.51,2.1,2.26,2.26,0,0,0,1.95.83c1.64,0,2.45-1,2.45-3v-2.24a2.24,2.24,0,0,0-.09-.81.65.65,0,0,0-.19-.25,1,1,0,0,0-.25-.11l-.35-.1a4.11,4.11,0,0,1-.45-.13v-.29h3.09v.3a1,1,0,0,1-.33.1l-.35.07a.64.64,0,0,0-.53.4,2.65,2.65,0,0,0-.09.73l0,1.76a8.73,8.73,0,0,1-.16,1.92,4.28,4.28,0,0,1-.38,1,2.58,2.58,0,0,1-.59.69,3.56,3.56,0,0,1-2.21.6,3.77,3.77,0,0,1-2.15-.58,2.44,2.44,0,0,1-1.11-1.86A14.2,14.2,0,0,1-183-61.67Z" transform="translate(283 84)"/><path class="cls-1" d="M-168-57.81a11.79,11.79,0,0,0-1.26-.07h-5.45v-.31l.47-.13a2.05,2.05,0,0,0,.42-.15.79.79,0,0,0,.43-.78v-4.53a1.86,1.86,0,0,0-.1-.75.64.64,0,0,0-.21-.22.81.81,0,0,0-.25-.09l-.33-.07a3,3,0,0,1-.43-.11v-.29h3.87v.3a2.49,2.49,0,0,1-.56.16,2.13,2.13,0,0,0-.43.09.45.45,0,0,0-.19.15,1.47,1.47,0,0,0-.15.8v4.17a3.85,3.85,0,0,0,.07.78.58.58,0,0,0,.27.4,1.15,1.15,0,0,0,.61.13h.86l.72,0a2.4,2.4,0,0,0,.48-.11,1.4,1.4,0,0,0,.75-.67c.07-.12.13-.24.19-.36a1.13,1.13,0,0,1,.23-.34h.35Z" transform="translate(283 84)"/><path class="cls-1" d="M-162.94-64.95h-.88v5.64a.94.94,0,0,0,.35.85,2.73,2.73,0,0,0,.95.23v.2s0,.06,0,.09h-3.79v-.29a3.53,3.53,0,0,1,.46-.15,1.67,1.67,0,0,0,.41-.16.81.81,0,0,0,.41-.77v-5.64h-.83a5.28,5.28,0,0,0-.79,0,.81.81,0,0,0-.45.2,1.79,1.79,0,0,0-.3.36,3.87,3.87,0,0,0-.27.43,2.78,2.78,0,0,1-.25.38h-.27l.15-1.84h7.29l.18,1.84h-.27a1.92,1.92,0,0,1-.25-.38c-.08-.14-.16-.28-.25-.42a1.19,1.19,0,0,0-.69-.56A6.8,6.8,0,0,0-162.94-64.95Z" transform="translate(283 84)"/><path class="cls-1" d="M-157.45-59.42a1.61,1.61,0,0,0,.1.73.59.59,0,0,0,.23.2l.25.08.33.06a2.43,2.43,0,0,1,.4.11v.31H-160v-.3a2.12,2.12,0,0,1,.56-.16,2.25,2.25,0,0,0,.4-.08.32.32,0,0,0,.18-.15,1.91,1.91,0,0,0,.14-.9v-4.29q0-.91-.39-1l-.26-.06a1.82,1.82,0,0,1-.65-.18v-.3h3.8v.3a2.83,2.83,0,0,1-.44.12,2.19,2.19,0,0,0-.41.14.72.72,0,0,0-.44.71Z" transform="translate(283 84)"/><path class="cls-1" d="M-147.26-57.88a1,1,0,0,1-.61,0c-.34-.41-.65-.77-.93-1.07l-4.53-4.74v4c0,.6.1,1,.31,1.1a1.3,1.3,0,0,0,.58.22,1.85,1.85,0,0,1,.51.13c0,.1,0,.2,0,.31h-3.23s0-.07,0-.1v-.21l.48-.13a1.63,1.63,0,0,0,.44-.15.89.89,0,0,0,.48-.78v-4.86a1.55,1.55,0,0,0-.64-.61,2.46,2.46,0,0,0-.38-.14,4.06,4.06,0,0,1-.44-.16v-.3h2l5.39,5.56V-63.4a2.9,2.9,0,0,0-.11-.86.9.9,0,0,0-.25-.44,1.08,1.08,0,0,0-.3-.16l-.33-.09a1.35,1.35,0,0,1-.34-.11c0-.1,0-.2,0-.31h3v.31l-.44.19-.33.16a1,1,0,0,0-.22.17.69.69,0,0,0-.14.24,9.59,9.59,0,0,0-.1,1.67c0,.94,0,1.71,0,2.31a12.78,12.78,0,0,0,.06,1.41C-147.29-58.57-147.27-58.23-147.26-57.88Z" transform="translate(283 84)"/><path class="cls-1" d="M-137.73-61.84v.3l-.35.13a1.28,1.28,0,0,0-.31.15.79.79,0,0,0-.3.68v2.1a6.36,6.36,0,0,1-3,.69,4.62,4.62,0,0,1-3.15-1A3.51,3.51,0,0,1-146-61.58a3.59,3.59,0,0,1,.63-2.07A4.14,4.14,0,0,1-143.7-65a5.38,5.38,0,0,1,2.27-.49,7.4,7.4,0,0,1,2.52.46l.17,1.72-.33,0a1.17,1.17,0,0,1-.24-.33,5.26,5.26,0,0,0-.32-.57,2.45,2.45,0,0,0-2-.86,2.79,2.79,0,0,0-2.17.94,3.36,3.36,0,0,0-.86,2.34,3.71,3.71,0,0,0,.85,2.51,2.8,2.8,0,0,0,2.22,1,2.84,2.84,0,0,0,1.53-.37,11.26,11.26,0,0,0,.07-1.15,4.16,4.16,0,0,0-.16-1.28c-.06-.16-.22-.26-.49-.32l-.31-.06a1,1,0,0,1-.28-.07v-.15a.76.76,0,0,1,0-.15Z" transform="translate(283 84)"/></g></g></g></g></svg>